<svg id="visual" viewBox="0 0 2000 1400" width="2000" height="1400" xmlns="http://www.w3.org/2000/svg" xmlns:xlink="http://www.w3.org/1999/xlink" version="1.1"><rect x="0" y="0" width="2000" height="1400" fill="#142517"></rect><path d="M0 927L23.8 925.7C47.7 924.3 95.3 921.7 143 919.3C190.7 917 238.3 915 286 922.2C333.7 929.3 381.3 945.7 428.8 934.3C476.3 923 523.7 884 571.2 894.7C618.7 905.3 666.3 965.7 714 976.3C761.7 987 809.3 948 857 917.5C904.7 887 952.3 865 1000 883.8C1047.7 902.7 1095.3 962.3 1143 969C1190.7 975.7 1238.3 929.3 1286 921.2C1333.7 913 1381.3 943 1428.8 932.7C1476.3 922.3 1523.7 871.7 1571.2 862.7C1618.7 853.7 1666.3 886.3 1714 907.7C1761.7 929 1809.3 939 1857 923.5C1904.7 908 1952.3 867 1976.2 846.5L2000 826L2000 1401L1976.2 1401C1952.3 1401 1904.7 1401 1857 1401C1809.3 1401 1761.7 1401 1714 1401C1666.3 1401 1618.7 1401 1571.2 1401C1523.7 1401 1476.3 1401 1428.8 1401C1381.3 1401 1333.7 1401 1286 1401C1238.3 1401 1190.7 1401 1143 1401C1095.3 1401 1047.7 1401 1000 1401C952.3 1401 904.7 1401 857 1401C809.3 1401 761.7 1401 714 1401C666.3 1401 618.7 1401 571.2 1401C523.7 1401 476.3 1401 428.8 1401C381.3 1401 333.7 1401 286 1401C238.3 1401 190.7 1401 143 1401C95.3 1401 47.7 1401 23.8 1401L0 1401Z" fill="#25492b"></path><path d="M0 969L23.8 964.7C47.7 960.3 95.3 951.7 143 959.7C190.7 967.7 238.3 992.3 286 1013.3C333.7 1034.3 381.3 1051.7 428.8 1052.3C476.3 1053 523.7 1037 571.2 1023.7C618.7 1010.3 666.3 999.7 714 1012.7C761.7 1025.7 809.3 1062.3 857 1063.8C904.7 1065.3 952.3 1031.7 1000 1031.3C1047.7 1031 1095.3 1064 1143 1074.2C1190.7 1084.3 1238.3 1071.7 1286 1066.7C1333.7 1061.7 1381.3 1064.3 1428.8 1053.7C1476.3 1043 1523.7 1019 1571.2 1005C1618.7 991 1666.3 987 1714 992.2C1761.7 997.3 1809.3 1011.7 1857 1002.3C1904.7 993 1952.3 960 1976.2 943.5L2000 927L2000 1401L1976.2 1401C1952.3 1401 1904.7 1401 1857 1401C1809.3 1401 1761.7 1401 1714 1401C1666.3 1401 1618.7 1401 1571.2 1401C1523.7 1401 1476.3 1401 1428.8 1401C1381.3 1401 1333.7 1401 1286 1401C1238.3 1401 1190.7 1401 1143 1401C1095.3 1401 1047.7 1401 1000 1401C952.3 1401 904.7 1401 857 1401C809.3 1401 761.7 1401 714 1401C666.3 1401 618.7 1401 571.2 1401C523.7 1401 476.3 1401 428.8 1401C381.3 1401 333.7 1401 286 1401C238.3 1401 190.7 1401 143 1401C95.3 1401 47.7 1401 23.8 1401L0 1401Z" fill="#204026"></path><path d="M0 1023L23.8 1040.3C47.7 1057.7 95.3 1092.3 143 1093.8C190.7 1095.3 238.3 1063.7 286 1075C333.7 1086.3 381.3 1140.7 428.8 1146.7C476.3 1152.7 523.7 1110.3 571.2 1090.8C618.7 1071.3 666.3 1074.7 714 1082.7C761.7 1090.7 809.3 1103.3 857 1095C904.7 1086.7 952.3 1057.3 1000 1047.2C1047.7 1037 1095.3 1046 1143 1051.7C1190.7 1057.3 1238.3 1059.7 1286 1063C1333.7 1066.3 1381.3 1070.7 1428.8 1088.5C1476.3 1106.3 1523.7 1137.7 1571.2 1136.5C1618.7 1135.3 1666.3 1101.7 1714 1082.2C1761.7 1062.7 1809.3 1057.3 1857 1068.2C1904.7 1079 1952.3 1106 1976.2 1119.5L2000 1133L2000 1401L1976.2 1401C1952.3 1401 1904.7 1401 1857 1401C1809.3 1401 1761.7 1401 1714 1401C1666.3 1401 1618.7 1401 1571.2 1401C1523.7 1401 1476.3 1401 1428.8 1401C1381.3 1401 1333.7 1401 1286 1401C1238.3 1401 1190.7 1401 1143 1401C1095.3 1401 1047.7 1401 1000 1401C952.3 1401 904.7 1401 857 1401C809.3 1401 761.7 1401 714 1401C666.3 1401 618.7 1401 571.2 1401C523.7 1401 476.3 1401 428.8 1401C381.3 1401 333.7 1401 286 1401C238.3 1401 190.7 1401 143 1401C95.3 1401 47.7 1401 23.8 1401L0 1401Z" fill="#1c3721"></path><path d="M0 1207L23.8 1214.3C47.7 1221.7 95.3 1236.3 143 1227C190.7 1217.7 238.3 1184.3 286 1173.2C333.7 1162 381.3 1173 428.8 1171.2C476.3 1169.3 523.7 1154.7 571.2 1165C618.7 1175.3 666.3 1210.7 714 1207.8C761.7 1205 809.3 1164 857 1151.2C904.7 1138.3 952.3 1153.7 1000 1163.2C1047.7 1172.7 1095.3 1176.3 1143 1183.5C1190.7 1190.7 1238.3 1201.3 1286 1215.8C1333.7 1230.3 1381.3 1248.7 1428.8 1237.7C1476.3 1226.7 1523.7 1186.3 1571.2 1167.8C1618.7 1149.3 1666.3 1152.7 1714 1154.3C1761.7 1156 1809.3 1156 1857 1167.8C1904.7 1179.7 1952.3 1203.3 1976.2 1215.2L2000 1227L2000 1401L1976.2 1401C1952.3 1401 1904.7 1401 1857 1401C1809.3 1401 1761.7 1401 1714 1401C1666.3 1401 1618.7 1401 1571.2 1401C1523.7 1401 1476.3 1401 1428.8 1401C1381.3 1401 1333.7 1401 1286 1401C1238.3 1401 1190.7 1401 1143 1401C1095.3 1401 1047.7 1401 1000 1401C952.3 1401 904.7 1401 857 1401C809.3 1401 761.7 1401 714 1401C666.3 1401 618.7 1401 571.2 1401C523.7 1401 476.3 1401 428.8 1401C381.3 1401 333.7 1401 286 1401C238.3 1401 190.7 1401 143 1401C95.3 1401 47.7 1401 23.8 1401L0 1401Z" fill="#182e1c"></path><path d="M0 1319L23.8 1313C47.7 1307 95.3 1295 143 1297C190.7 1299 238.3 1315 286 1323.7C333.7 1332.3 381.3 1333.7 428.8 1329.2C476.3 1324.7 523.7 1314.3 571.2 1308.8C618.7 1303.3 666.3 1302.7 714 1296C761.7 1289.3 809.3 1276.7 857 1265.3C904.7 1254 952.3 1244 1000 1251.8C1047.7 1259.7 1095.3 1285.3 1143 1288.7C1190.7 1292 1238.3 1273 1286 1259.3C1333.7 1245.7 1381.3 1237.3 1428.8 1249.2C1476.3 1261 1523.7 1293 1571.2 1297.8C1618.7 1302.7 1666.3 1280.3 1714 1278.7C1761.7 1277 1809.3 1296 1857 1294.8C1904.7 1293.7 1952.3 1272.3 1976.2 1261.7L2000 1251L2000 1401L1976.2 1401C1952.3 1401 1904.7 1401 1857 1401C1809.3 1401 1761.7 1401 1714 1401C1666.3 1401 1618.7 1401 1571.2 1401C1523.7 1401 1476.3 1401 1428.8 1401C1381.3 1401 1333.7 1401 1286 1401C1238.3 1401 1190.7 1401 1143 1401C1095.3 1401 1047.7 1401 1000 1401C952.3 1401 904.7 1401 857 1401C809.3 1401 761.7 1401 714 1401C666.3 1401 618.7 1401 571.2 1401C523.7 1401 476.3 1401 428.8 1401C381.3 1401 333.7 1401 286 1401C238.3 1401 190.7 1401 143 1401C95.3 1401 47.7 1401 23.8 1401L0 1401Z" fill="#142517"></path></svg>